<?xml version="1.0" standalone="no"?>
<!DOCTYPE svg PUBLIC "-//W3C//DTD SVG 20010904//EN"
 "http://www.w3.org/TR/2001/REC-SVG-20010904/DTD/svg10.dtd">
<svg version="1.0" xmlns="http://www.w3.org/2000/svg"
 width="301.000000pt" height="301.000000pt" viewBox="0 0 301.000000 301.000000"
 preserveAspectRatio="xMidYMid meet">
<metadata>
Created by potrace 1.11, written by Peter Selinger 2001-2013
</metadata>
<g transform="translate(0.000000,301.000000) scale(0.100000,-0.100000)"
fill="#000000" stroke="none">
<path d="M1385 2651 c-2 -5 -16 -7 -30 -6 -14 2 -25 -1 -25 -6 0 -5 -8 -9 -18
-9 -10 0 -23 -5 -30 -12 -7 -7 -12 -8 -12 -4 0 15 -62 -58 -81 -97 -18 -34
-22 -37 -37 -25 -9 7 -20 18 -24 23 -4 6 -8 6 -8 2 0 -4 -9 -3 -21 3 -67 37
-193 26 -261 -22 -16 -11 -28 -17 -28 -14 0 19 -109 -110 -114 -136 -2 -7 -8
-24 -14 -38 -5 -14 -9 -59 -9 -101 l2 -76 -41 0 c-96 -1 -202 -84 -261 -203
-39 -80 -64 -169 -67 -237 0 -17 -4 -29 -8 -27 -5 3 -8 -74 -8 -170 0 -97 4
-176 9 -176 4 0 8 -8 8 -17 -4 -69 89 -269 155 -336 57 -57 94 -73 183 -81 23
-2 29 -8 28 -22 -15 -125 10 -198 91 -270 119 -105 289 -139 384 -76 24 15 34
12 38 -13 5 -32 80 -103 119 -112 6 -1 24 -6 40 -10 39 -11 92 -8 110 7 12 10
15 106 17 621 2 335 -1 609 -5 609 -5 0 -5 5 -2 11 10 15 11 149 2 149 -5 0
-5 5 -2 10 9 15 7 833 -3 841 -14 13 -72 28 -77 20z m-4 -118 c0 -16 1 -53 2
-83 0 -31 -2 -61 -7 -68 -4 -6 -4 -12 1 -12 4 0 8 -56 8 -125 0 -69 -4 -125
-8 -125 -5 0 -5 -5 -2 -11 10 -14 10 -192 1 -207 -4 -7 -4 -12 1 -12 10 0 9
-292 -1 -308 -4 -7 -4 -12 1 -12 4 0 8 -56 8 -125 0 -69 -4 -125 -8 -125 -5 0
-5 -5 -2 -11 10 -14 10 -192 1 -207 -4 -7 -4 -12 1 -12 4 0 8 -56 8 -125 0
-69 -4 -125 -8 -125 -5 0 -5 -5 -2 -11 10 -14 10 -192 1 -207 -4 -7 -4 -12 1
-12 9 0 8 -128 -1 -137 -18 -18 -110 44 -115 79 -1 7 -4 35 -7 63 -9 72 -55
100 -87 52 -19 -30 -74 -82 -87 -83 -6 -1 -11 -2 -12 -4 -9 -7 -98 -3 -98 4 0
5 -3 6 -6 3 -12 -12 -123 55 -159 94 -62 69 -66 151 -11 250 17 28 16 50 -2
72 -11 13 -19 13 -70 -5 -109 -39 -167 -19 -229 76 -40 62 -70 125 -65 139 1
4 -3 7 -8 7 -6 0 -10 11 -10 23 0 13 -3 27 -7 31 -11 10 -14 45 -18 208 -4
144 -4 148 18 159 12 7 29 19 37 28 21 23 70 48 109 56 47 10 91 12 91 5 0 -4
6 -7 14 -7 22 0 76 -24 76 -34 0 -5 7 -9 16 -9 8 0 12 -4 9 -10 -3 -5 -2 -10
3 -10 13 0 52 -80 55 -115 5 -47 25 -75 52 -75 74 0 44 163 -48 263 -53 57
-128 86 -213 82 -96 -4 -115 -8 -156 -32 l-36 -21 2 23 c4 37 74 172 104 201
37 35 79 56 116 57 42 1 106 -12 106 -22 0 -12 98 -74 116 -74 8 0 14 -3 14
-7 0 -15 111 -1 152 20 35 18 119 105 111 117 -1 1 6 23 17 48 22 50 22 53 9
78 -6 10 -21 17 -39 17 -31 0 -39 -7 -45 -40 -16 -81 -88 -153 -154 -155 -66
-2 -142 66 -156 140 -2 11 -4 21 -5 23 -5 6 -2 51 5 82 18 78 97 158 175 177
37 8 80 10 80 3 0 -5 8 -7 17 -6 24 4 77 -27 120 -69 20 -19 39 -35 43 -35 13
0 43 28 46 41 9 63 14 79 28 106 15 30 68 70 94 72 7 1 12 -11 13 -26z"/>
<path d="M1180 2060 c-50 -51 -81 -124 -83 -195 -2 -57 -4 -62 -22 -58 -82 20
-118 9 -110 -34 6 -33 18 -41 78 -49 26 -4 47 -10 47 -15 0 -5 7 -9 15 -9 29
0 82 -59 98 -109 22 -69 9 -140 -37 -204 -24 -33 -105 -89 -117 -81 -5 3 -9 0
-9 -6 0 -6 -4 -9 -9 -5 -15 8 -60 -16 -66 -36 -13 -40 9 -54 87 -56 120 -3
112 0 168 -57 26 -27 53 -93 64 -158 3 -15 7 -32 10 -36 6 -10 48 -8 66 3 11
7 12 90 1 110 -3 6 -6 15 -7 20 -8 51 -99 175 -128 175 -25 0 -35 21 -17 39
33 36 89 122 83 129 -1 1 -2 3 -1 5 26 87 11 190 -38 260 -54 77 -64 100 -67
148 -4 54 18 113 58 156 38 40 33 73 -11 87 -17 6 -30 0 -53 -24z"/>
<path d="M684 1229 c-2 -4 -18 -9 -35 -13 -33 -6 -129 -60 -141 -80 -14 -20
-8 -54 10 -62 28 -12 36 -11 68 13 17 13 36 23 42 23 7 0 12 5 12 11 0 5 5 7
10 4 6 -4 18 -1 26 6 19 15 137 16 142 0 2 -6 7 -9 12 -6 10 6 93 -73 108
-105 20 -41 28 -112 17 -147 -5 -18 -13 -33 -17 -33 -5 0 -8 -6 -8 -12 0 -7
-10 -29 -22 -48 -27 -43 -28 -50 -10 -72 23 -28 54 -22 78 15 44 69 54 87 58
109 3 13 5 23 6 23 1 0 3 14 5 31 1 17 5 36 9 43 4 6 3 11 -1 11 -5 0 -8 13
-7 28 4 54 -94 212 -131 212 -8 0 -18 6 -22 14 -4 7 -26 19 -48 26 -42 14
-154 20 -161 9z"/>
<path d="M1538 2643 c-9 -2 -18 -14 -21 -26 -3 -12 -6 -143 -7 -292 -3 -655
-7 -976 -12 -981 -3 -3 -2 -21 2 -40 5 -20 4 -34 -2 -34 -5 0 -6 -5 -3 -10 6
-10 7 -138 2 -293 -1 -48 1 -87 6 -87 4 0 5 -6 1 -12 -12 -19 -12 -439 -1
-465 6 -13 17 -24 26 -24 9 -1 252 -2 540 -3 387 -1 528 2 540 11 14 10 16 76
17 649 l1 638 31 8 c40 11 52 48 25 76 -10 10 -65 56 -123 102 -58 45 -107 86
-110 89 -3 3 -34 28 -70 56 -36 27 -67 52 -70 55 -3 3 -128 103 -278 223 -329
263 -311 248 -334 270 -10 9 -22 17 -28 17 -5 0 -13 6 -17 13 -9 15 -61 52
-83 59 -8 2 -22 3 -32 1z m94 -151 c2 -4 41 -38 88 -75 47 -37 97 -79 113 -92
15 -14 30 -25 33 -25 3 0 19 -13 37 -30 18 -16 38 -30 45 -30 7 0 11 -4 8 -9
-3 -5 0 -11 7 -14 6 -2 62 -45 123 -93 61 -49 126 -101 145 -116 19 -14 44
-35 56 -45 23 -19 37 -30 170 -137 l81 -65 0 -633 c1 -348 -1 -640 -3 -648 -4
-13 -47 -15 -314 -15 l-309 0 -5 35 c-2 19 0 36 4 38 4 2 3 15 -2 30 -7 18 -7
28 0 30 7 2 7 12 0 30 -7 18 -7 28 0 30 7 2 7 12 0 30 -7 18 -7 28 0 30 7 2 7
12 0 30 -7 18 -7 28 0 30 7 2 7 12 0 30 -7 18 -7 28 0 30 7 2 7 12 0 30 -7 18
-7 28 0 30 7 2 7 12 0 30 -7 18 -7 28 0 30 7 2 7 12 0 30 -7 18 -7 28 0 30 7
2 7 12 0 30 -7 18 -7 28 0 30 7 2 7 12 0 30 -7 18 -7 28 0 30 7 2 7 12 0 30
-6 15 -6 28 -1 30 16 5 0 61 -26 84 -14 13 -21 16 -17 8 7 -12 6 -13 -6 -5
-13 10 -118 12 -194 5 -36 -4 -85 9 -85 21 0 5 3 9 8 9 4 0 7 219 7 488 0 268
3 497 7 510 4 12 4 22 0 22 -4 0 -7 16 -7 35 0 19 2 35 5 35 3 0 5 11 5 25 0
14 -3 25 -7 25 -3 0 -4 9 -1 20 5 20 28 28 35 12z m172 -1291 c13 -1 17 -6 13
-21 -3 -11 -2 -20 3 -20 8 0 5 -36 -5 -62 -4 -11 -3 -18 4 -18 9 0 9 -5 1 -20
-6 -11 -7 -20 -3 -20 9 0 8 -128 -1 -137 -3 -3 -1 -14 5 -24 5 -11 6 -19 1
-19 -4 0 -8 -13 -7 -30 0 -16 2 -30 5 -30 3 0 3 -27 0 -60 -3 -33 -3 -60 1
-60 7 0 4 -37 -6 -62 -4 -11 -3 -18 4 -18 9 0 9 -5 1 -20 -8 -14 -8 -20 0 -20
6 0 9 -4 6 -9 -4 -5 -7 -27 -8 -48 l-1 -39 -111 0 c-61 0 -114 4 -117 9 -3 4
-4 137 -2 295 1 158 3 318 3 355 0 38 2 71 4 75 3 6 118 7 210 3z"/>
</g>
</svg>
